<?xml version="1.0" standalone="no"?>
<!DOCTYPE svg PUBLIC "-//W3C//DTD SVG 20010904//EN"
 "http://www.w3.org/TR/2001/REC-SVG-20010904/DTD/svg10.dtd">
<svg version="1.0" xmlns="http://www.w3.org/2000/svg"
 width="128.000000pt" height="128.000000pt" viewBox="0 0 128.000000 128.000000"
 preserveAspectRatio="xMidYMid meet">
<metadata>
Created by potrace 1.11, written by Peter Selinger 2001-2013
</metadata>
<g transform="translate(0.000000,128.000000) scale(0.100000,-0.100000)"
fill="#000000" stroke="none">
<path d="M702 1218 c-9 -9 -12 -118 -12 -431 0 -432 -5 -490 -41 -523 -24 -22
-101 -30 -138 -14 -40 16 -61 72 -61 158 0 40 -5 73 -12 80 -19 19 -192 16
-208 -3 -9 -11 -11 -45 -8 -123 7 -163 46 -234 161 -294 35 -18 63 -23 158
-26 161 -6 212 10 290 87 94 94 92 86 97 619 2 340 0 457 -9 468 -15 18 -199
20 -217 2z m178 -188 l0 -160 -70 0 -70 0 0 160 0 160 70 0 70 0 0 -160z m0
-370 l0 -160 -70 0 -70 0 0 160 0 160 70 0 70 0 0 -160z m4 -272 c-12 -129
-45 -202 -116 -254 -34 -26 -115 -54 -155 -54 -21 0 -23 4 -23 55 0 44 4 57
18 61 92 29 121 74 122 187 l0 67 80 0 80 0 -6 -62z"/>
</g>
</svg>
